<svg width="535" height="540" viewBox="0 0 535 540" fill="none" xmlns="http://www.w3.org/2000/svg">
<path d="M237.333 1.99994C219.867 3.99994 200.533 7.59994 197.067 9.4666C193.867 11.1999 194 14.7999 197.333 15.5999C198.8 15.9999 200 16.7999 200 17.3333C200 17.8666 201.6 18.9333 203.467 19.8666C210.8 23.1999 228.133 39.7333 236.533 51.3333C239.2 54.9333 244.267 63.9999 247.867 71.3333C263.867 104.4 271.467 138.8 272.8 185.333C273.2 199.6 274.133 214.667 274.933 218.667C276.267 225.867 280.8 236.533 284.267 240.667C292.133 250.267 304.133 257.867 314.267 259.733C326 262 525.067 263.333 529.733 261.2C533.467 259.467 535.6 253.2 534.133 248.4C533.733 247.067 533.067 242.933 532.667 239.333C529.733 213.6 522.533 183.733 515.333 167.333C504.933 143.867 497.333 130.133 486.267 114.8C471.867 94.7999 456 77.5999 440 64.5333C437.467 62.3999 434.4 59.7333 433.333 58.6666C430.533 55.7333 420.4 47.9999 419.467 47.9999C419.067 47.9999 413.467 44.3999 406.933 39.9999C400.4 35.5999 394.533 31.9999 393.867 31.9999C393.2 31.9999 391.2 30.7999 389.333 29.3333C387.467 27.8666 385.067 26.6666 383.733 26.6666C382.533 26.6666 381.333 26.1333 381.067 25.5999C380.667 24.5333 358.267 15.3333 346.667 11.5999C315.2 1.19994 275.067 -2.26673 237.333 1.99994ZM392.4 89.7333C396.133 106 402.267 120.133 408.4 126.267C410 127.867 413.333 131.2 415.733 133.733C418.267 136.267 422.4 139.467 425.067 140.8C427.867 142.267 430.267 143.733 430.667 144.133C431.867 145.6 447.467 150.667 450.8 150.667C452.533 150.667 455.467 151.867 457.333 153.333C460.667 155.867 460.667 155.867 458 157.867C456.533 158.933 452.667 160.133 449.467 160.667C446.267 161.2 442.667 162 441.467 162.667C440.267 163.333 435.733 165.2 431.467 166.933C427.2 168.533 422.933 171.067 422.133 172.267C421.333 173.6 420.133 174.667 419.333 174.667C418.667 174.667 415.2 177.6 411.733 181.067C405.067 187.867 399.067 199.2 393.333 216C391.467 221.467 389.333 226 388.667 226C387.867 226 385.2 219.6 382.667 211.867C377.333 195.867 374 190.267 363.6 179.6C355.733 171.733 341.733 163.733 330.8 161.067C327.467 160.267 322.933 158.667 320.8 157.6L316.8 155.733L320.133 153.867C325.333 150.8 332.133 148 334.133 148C335.2 148 341.067 145.6 347.333 142.8C368.133 133.067 375.467 122.533 387.467 85.4666C388.267 83.0666 391.467 85.7333 392.4 89.7333Z" fill="#E62F2A"/>
<path d="M106.667 59.1999C91.7334 62.7999 77.0668 69.0666 70.8001 74.5333C69.0668 76.1333 67.2001 77.3333 66.8001 77.3333C65.3334 77.3333 52.5334 89.8666 48.5334 95.3333C42.8001 102.8 36.9334 113.867 33.3334 124C30.8001 131.067 30.1334 136.267 29.6001 151.2C29.0667 170.133 30.0001 178.667 34.4001 190.667C37.2001 198.667 43.3334 210.133 48.4001 216.667C53.6001 223.6 66.8001 236 68.9334 236C69.7334 236 71.0668 236.8 71.6001 237.733C74.5334 242.4 94.0001 250.533 108.533 253.2C122.667 255.733 148.533 254.4 158 250.667C159.467 250 163.333 248.533 166.667 247.333C185.867 240.133 205.2 221.467 216.533 199.067C222.533 187.067 224.267 178.8 224.933 159.333C225.6 141.467 224.133 131.733 219.067 118.667C215.067 108.667 204.933 92.2666 202 91.1999C200.933 90.6666 200 89.8666 200 89.0666C200 87.5999 198.933 86.5333 189.867 78.9333C186 75.8666 182.267 73.3333 181.467 73.3333C180.667 73.3333 180 72.7999 180 72.2666C180 70.3999 159.2 61.1999 151.733 59.8666C140.267 57.5999 114.933 57.1999 106.667 59.1999Z" fill="#E62F2A"/>
<path d="M312.933 283.467C299.067 287.2 285.067 297.2 283.2 304.8C282.8 306.533 282 308 281.333 308C280.133 308 276.267 316.933 275.467 322C275.067 324.133 274.4 334.933 274 346C272.8 377.867 271.067 392.267 265.2 418.933C259.2 446.4 248 474.8 238.4 486.667C236.4 489.2 234.667 491.733 234.667 492.4C234.667 493.733 219.333 508.8 213.6 513.333C211.6 514.8 207.467 517.867 204.4 520.133C200 523.333 198.667 525.067 198.667 528C198.667 531.2 199.333 531.867 203.067 532.4C205.333 532.933 210.667 533.867 214.667 534.667C218.667 535.467 231.467 537.067 243.2 538.267C262.533 540.267 266.133 540.267 285.867 538.267C297.6 537.067 310.933 535.6 315.333 534.933C346.267 530.133 382.533 516 411.067 497.733C422 490.8 437.333 478.667 437.333 477.067C437.333 476.533 438.133 476 439.2 476C441.333 476 472.8 443.733 478.533 435.6C499.2 406.533 511.467 383.333 520 357.467C526.667 337.467 531.467 315.333 532.8 299.867C533.6 289.067 533.467 288.133 530.533 284.933L527.467 281.333L423.467 281.467C342.133 281.6 317.867 282 312.933 283.467Z" fill="#E62F2A"/>
<path d="M1.46653 288.8C-0.933472 291.6 -0.00013836 298.4 6.79986 325.6C12.9332 350.267 18.6665 367.867 23.9999 378.933C26.1332 383.067 28.1332 387.733 28.6665 389.467C30.2665 394.4 45.0665 421.2 47.9999 424.267C49.4665 425.867 50.6665 427.733 50.6665 428.4C50.6665 431.067 67.7332 452.133 80.5332 465.067C93.7332 478.4 109.2 492 111.467 492C112.133 492 114 493.467 115.733 495.333C118.933 498.533 134.4 506.667 142.533 509.2C148.4 511.067 171.6 511.067 177.467 509.2C192.8 504.267 207.2 493.867 210.8 485.067C212.933 479.867 211.467 471.067 208 467.333C206.4 465.6 198.667 461.467 190.933 458C178.133 452.4 164.933 444 168.933 444C169.867 444 174.533 444.933 179.6 446.133C185.067 447.467 195.2 448.4 205.333 448.533C219.467 448.667 222.8 448.267 227.333 446C241.6 438.933 243.333 434 243.333 400.667C243.333 371.467 242.133 364.267 234.533 348.133C227.6 333.2 214.667 319.733 200.933 312.933C180 302.667 186.267 303.333 116.667 303.333C43.1999 303.333 39.5999 302.8 13.0665 290C5.06653 286.133 3.99986 286 1.46653 288.8Z" fill="#E62F2A"/>
</svg>
