<?xml version="1.0" encoding="UTF-8" standalone="no"?>
<!DOCTYPE svg PUBLIC "-//W3C//DTD SVG 20010904//EN" "http://www.w3.org/TR/2001/REC-SVG-20010904/DTD/svg10.dtd">
<svg version="1.0" xmlns="http://www.w3.org/2000/svg" width="401.000000pt" height="405.000000pt" viewBox="0 0 401.000000 405.000000" preserveAspectRatio="xMidYMid meet">
<metadata>
Created by potrace 1.16, written by Peter Selinger 2001-2019
</metadata>
<g transform="translate(0.000000,405.000000) scale(0.100000,-0.100000)" fill="#ff2d20" stroke="none">
<path d="M1780 4035 c-131 -15 -276 -42 -302 -56 -24 -13 -23 -40 2 -46 11 -3 20 -9 20 -13 0 -4 12 -12 26 -19 55 -25 185 -149 248 -236 20 -27 58 -95 85 -150 120 -248 177 -506 187 -855 3 -107 10 -220 16 -250 10 -54 44 -134 70 -165 59 -72 149 -129 225 -143 88 -17 1581 -27 1616 -11 28 13 44 60 33 96 -3 10 -8 41 -11 68 -22 193 -76 417 -130 540 -78 176 -135 279 -218 394 -108 150 -227 279 -347 377 -19 16 -42 36 -50 44 -21 22 -97 80 -104 80 -3 0 -45 27 -94 60 -49 33 -93 60 -98 60 -5 0 -20 9 -34 20 -14 11 -32 20 -42 20 -9 0 -18 4 -20 8 -3 8 -171 77 -258 105 -236 78 -537 104 -820 72z m1163 -658 c28 -122 74 -228 120 -274 12 -12 37 -37 55 -56 19 -19 50 -43 70 -53 21 -11 39 -22 42 -25 9 -11 126 -49 151 -49 13 0 35 -9 49 -20 25 -19 25 -19 5 -34 -11 -8 -40 -17 -64 -21 -24 -4 -51 -10 -60 -15 -9 -5 -43 -19 -75 -32 -32 -12 -64 -31 -70 -40 -6 -10 -15 -18 -21 -18 -5 0 -31 -22 -57 -48 -50 -51 -95 -136 -138 -262 -14 -41 -30 -75 -35 -75 -6 0 -26 48 -45 106 -40 120 -65 162 -143 242 -59 59 -164 119 -246 139 -25 6 -59 18 -75 26 l-30 14 25 14 c39 23 90 44 105 44 8 0 52 18 99 39 156 73 211 152 301 430 6 18 30 -2 37 -32z"/>
<path d="M800 3606 c-112 -27 -222 -74 -269 -115 -13 -12 -27 -21 -30 -21 -11 0 -107 -94 -137 -135 -43 -56 -87 -139 -114 -215 -19 -53 -24 -92 -28 -204 -4 -142 3 -206 36 -296 21 -60 67 -146 105 -195 39 -52 138 -145 154 -145 6 0 16 -6 20 -13 22 -35 168 -96 277 -116 106 -19 300 -9 371 19 11 5 40 16 65 25 144 54 289 194 374 362 45 90 58 152 63 298 5 134 -6 207 -44 305 -30 75 -106 198 -128 206 -8 4 -15 10 -15 16 0 11 -8 19 -76 76 -29 23 -57 42 -63 42 -6 0 -11 4 -11 8 0 14 -156 83 -212 93 -86 17 -276 20 -338 5z"/>
<path d="M2347 1924 c-104 -28 -209 -103 -223 -160 -3 -13 -9 -24 -14 -24 -9 0 -38 -67 -44 -105 -3 -16 -8 -97 -11 -180 -9 -239 -22 -347 -66 -547 -45 -206 -129 -419 -201 -508 -15 -19 -28 -38 -28 -43 0 -10 -115 -123 -158 -157 -15 -11 -46 -34 -69 -51 -33 -24 -43 -37 -43 -59 0 -24 5 -29 33 -33 17 -4 57 -11 87 -17 30 -6 126 -18 214 -27 145 -15 172 -15 320 0 88 9 188 20 221 25 232 36 504 142 718 279 82 52 197 143 197 155 0 4 6 8 14 8 16 0 252 242 295 303 155 218 247 392 311 586 50 150 86 316 96 432 6 81 5 88 -17 112 l-23 27 -780 -1 c-610 -1 -792 -4 -829 -15z"/>
<path d="M11 1884 c-18 -21 -11 -72 40 -276 46 -185 89 -317 129 -400 16 -31 31 -66 35 -79 12 -37 123 -238 145 -261 11 -12 20 -26 20 -31 0 -20 128 -178 224 -275 99 -100 215 -202 232 -202 5 0 19 -11 32 -25 24 -24 140 -85 201 -104 44 -14 218 -14 262 0 115 37 223 115 250 181 16 39 5 105 -21 133 -12 13 -70 44 -128 70 -96 42 -195 105 -165 105 7 0 42 -7 80 -16 41 -10 117 -17 193 -18 106 -1 131 2 165 19 107 53 120 90 120 340 0 219 -9 273 -66 394 -52 112 -149 213 -252 264 -157 77 -110 72 -632 72 -551 0 -578 4 -777 100 -60 29 -68 30 -87 9z"/>
</g>
</svg>